#N canvas 950 21 960 980 12;
#X msg 158 123 connect 127.0.0.1 34254;
#X msg 424 127 1;
#X msg 537 138 0;
#X obj 221 265 netsend -u -b;
#X obj 398 208 oscformat -f i tadeusz;
#X connect 0 0 3 0;
#X connect 1 0 4 0;
#X connect 2 0 4 0;
#X connect 4 0 3 0;
